<?xml version="1.0" encoding="utf-8"?>
<svg xmlns="http://www.w3.org/2000/svg" version="1.1" width="2000" height="2000">

<line x1="0" y1="0" x2="2000" y2="0" stroke="lightgrey" />
<text x="5" y="-5" fill="lightgrey" >0</text>
<line x1="0" y1="100" x2="2000" y2="100" stroke="lightgrey" />
<text x="5" y="95" fill="lightgrey" >100</text>
<line x1="0" y1="200" x2="2000" y2="200" stroke="lightgrey" />
<text x="5" y="195" fill="lightgrey" >200</text>
<line x1="0" y1="300" x2="2000" y2="300" stroke="lightgrey" />
<text x="5" y="295" fill="lightgrey" >300</text>
<line x1="0" y1="400" x2="2000" y2="400" stroke="lightgrey" />
<text x="5" y="395" fill="lightgrey" >400</text>
<line x1="0" y1="500" x2="2000" y2="500" stroke="lightgrey" />
<text x="5" y="495" fill="lightgrey" >500</text>
<line x1="0" y1="600" x2="2000" y2="600" stroke="lightgrey" />
<text x="5" y="595" fill="lightgrey" >600</text>
<line x1="0" y1="700" x2="2000" y2="700" stroke="lightgrey" />
<text x="5" y="695" fill="lightgrey" >700</text>
<line x1="0" y1="800" x2="2000" y2="800" stroke="lightgrey" />
<text x="5" y="795" fill="lightgrey" >800</text>
<line x1="0" y1="900" x2="2000" y2="900" stroke="lightgrey" />
<text x="5" y="895" fill="lightgrey" >900</text>
<line x1="0" y1="1000" x2="2000" y2="1000" stroke="lightgrey" />
<text x="5" y="995" fill="lightgrey" >1000</text>
<line x1="0" y1="1100" x2="2000" y2="1100" stroke="lightgrey" />
<text x="5" y="1095" fill="lightgrey" >1100</text>
<line x1="0" y1="1200" x2="2000" y2="1200" stroke="lightgrey" />
<text x="5" y="1195" fill="lightgrey" >1200</text>
<line x1="0" y1="1300" x2="2000" y2="1300" stroke="lightgrey" />
<text x="5" y="1295" fill="lightgrey" >1300</text>
<line x1="0" y1="1400" x2="2000" y2="1400" stroke="lightgrey" />
<text x="5" y="1395" fill="lightgrey" >1400</text>
<line x1="0" y1="1500" x2="2000" y2="1500" stroke="lightgrey" />
<text x="5" y="1495" fill="lightgrey" >1500</text>
<line x1="0" y1="1600" x2="2000" y2="1600" stroke="lightgrey" />
<text x="5" y="1595" fill="lightgrey" >1600</text>
<line x1="0" y1="1700" x2="2000" y2="1700" stroke="lightgrey" />
<text x="5" y="1695" fill="lightgrey" >1700</text>
<line x1="0" y1="1800" x2="2000" y2="1800" stroke="lightgrey" />
<text x="5" y="1795" fill="lightgrey" >1800</text>
<line x1="0" y1="1900" x2="2000" y2="1900" stroke="lightgrey" />
<text x="5" y="1895" fill="lightgrey" >1900</text>
<line x1="0" y1="2000" x2="2000" y2="2000" stroke="lightgrey" />
<text x="5" y="1995" fill="lightgrey" >2000</text>
<line x1="0" y1="0" x2="0" y2="2000" stroke="lightgrey" />
<text x="5" y="15" fill="lightgrey" >0</text>
<line x1="100" y1="0" x2="100" y2="2000" stroke="lightgrey" />
<text x="105" y="15" fill="lightgrey" >100</text>
<line x1="200" y1="0" x2="200" y2="2000" stroke="lightgrey" />
<text x="205" y="15" fill="lightgrey" >200</text>
<line x1="300" y1="0" x2="300" y2="2000" stroke="lightgrey" />
<text x="305" y="15" fill="lightgrey" >300</text>
<line x1="400" y1="0" x2="400" y2="2000" stroke="lightgrey" />
<text x="405" y="15" fill="lightgrey" >400</text>
<line x1="500" y1="0" x2="500" y2="2000" stroke="lightgrey" />
<text x="505" y="15" fill="lightgrey" >500</text>
<line x1="600" y1="0" x2="600" y2="2000" stroke="lightgrey" />
<text x="605" y="15" fill="lightgrey" >600</text>
<line x1="700" y1="0" x2="700" y2="2000" stroke="lightgrey" />
<text x="705" y="15" fill="lightgrey" >700</text>
<line x1="800" y1="0" x2="800" y2="2000" stroke="lightgrey" />
<text x="805" y="15" fill="lightgrey" >800</text>
<line x1="900" y1="0" x2="900" y2="2000" stroke="lightgrey" />
<text x="905" y="15" fill="lightgrey" >900</text>
<line x1="1000" y1="0" x2="1000" y2="2000" stroke="lightgrey" />
<text x="1005" y="15" fill="lightgrey" >1000</text>
<line x1="1100" y1="0" x2="1100" y2="2000" stroke="lightgrey" />
<text x="1105" y="15" fill="lightgrey" >1100</text>
<line x1="1200" y1="0" x2="1200" y2="2000" stroke="lightgrey" />
<text x="1205" y="15" fill="lightgrey" >1200</text>
<line x1="1300" y1="0" x2="1300" y2="2000" stroke="lightgrey" />
<text x="1305" y="15" fill="lightgrey" >1300</text>
<line x1="1400" y1="0" x2="1400" y2="2000" stroke="lightgrey" />
<text x="1405" y="15" fill="lightgrey" >1400</text>
<line x1="1500" y1="0" x2="1500" y2="2000" stroke="lightgrey" />
<text x="1505" y="15" fill="lightgrey" >1500</text>
<line x1="1600" y1="0" x2="1600" y2="2000" stroke="lightgrey" />
<text x="1605" y="15" fill="lightgrey" >1600</text>
<line x1="1700" y1="0" x2="1700" y2="2000" stroke="lightgrey" />
<text x="1705" y="15" fill="lightgrey" >1700</text>
<line x1="1800" y1="0" x2="1800" y2="2000" stroke="lightgrey" />
<text x="1805" y="15" fill="lightgrey" >1800</text>
<line x1="1900" y1="0" x2="1900" y2="2000" stroke="lightgrey" />
<text x="1905" y="15" fill="lightgrey" >1900</text>
<line x1="2000" y1="0" x2="2000" y2="2000" stroke="lightgrey" />
<text x="2005" y="15" fill="lightgrey" >2000</text>
<circle cx="300" cy="100" r="3" fill="black" />
<text x="300" y="90" fill="black" >A</text>
<text x="310" y="70" fill="red" >2</text>
<text x="310" y="55" fill="green" >0</text>
<text x="310" y="25" fill="magenta" >2</text>
<text x="310" y="10" fill="gray" >2</text>
<text x="310" y="-5" fill="purple" >2</text>
<circle cx="200" cy="200" r="3" fill="black" />
<text x="200" y="190" fill="black" >B</text>
<text x="210" y="170" fill="red" >3</text>
<text x="210" y="155" fill="green" >0</text>
<text x="210" y="125" fill="magenta" >3</text>
<text x="210" y="110" fill="gray" >3</text>
<text x="210" y="95" fill="purple" >3</text>
<circle cx="400" cy="200" r="3" fill="black" />
<text x="400" y="190" fill="black" >C</text>
<text x="410" y="170" fill="red" >3</text>
<text x="410" y="155" fill="green" >0</text>
<text x="410" y="125" fill="magenta" >3</text>
<text x="410" y="110" fill="gray" >3</text>
<text x="410" y="95" fill="purple" >3</text>
<circle cx="300" cy="300" r="3" fill="black" />
<text x="300" y="290" fill="black" >D</text>
<text x="310" y="270" fill="red" >4</text>
<text x="310" y="255" fill="green" >0</text>
<text x="310" y="225" fill="magenta" >4</text>
<text x="310" y="210" fill="gray" >4</text>
<text x="310" y="195" fill="purple" >4</text>
<circle cx="200" cy="400" r="3" fill="black" />
<text x="200" y="390" fill="black" >E</text>
<text x="210" y="370" fill="red" >3</text>
<text x="210" y="355" fill="green" >0</text>
<text x="210" y="325" fill="magenta" >3</text>
<text x="210" y="310" fill="gray" >3</text>
<text x="210" y="295" fill="purple" >3</text>
<circle cx="300" cy="400" r="3" fill="black" />
<text x="300" y="390" fill="black" >F</text>
<text x="310" y="370" fill="red" >2</text>
<text x="310" y="355" fill="green" >0</text>
<text x="310" y="325" fill="magenta" >2</text>
<text x="310" y="310" fill="gray" >2</text>
<text x="310" y="295" fill="purple" >2</text>
<circle cx="400" cy="400" r="3" fill="black" />
<text x="400" y="390" fill="black" >G</text>
<text x="410" y="370" fill="red" >3</text>
<text x="410" y="355" fill="green" >0</text>
<text x="410" y="325" fill="magenta" >3</text>
<text x="410" y="310" fill="gray" >3</text>
<text x="410" y="295" fill="purple" >3</text>
<circle cx="100" cy="500" r="3" fill="black" />
<text x="100" y="490" fill="black" >H</text>
<text x="110" y="470" fill="red" >3</text>
<text x="110" y="455" fill="green" >0</text>
<text x="110" y="425" fill="magenta" >3</text>
<text x="110" y="410" fill="gray" >3</text>
<text x="110" y="395" fill="purple" >3</text>
<circle cx="500" cy="500" r="3" fill="black" />
<text x="500" y="490" fill="black" >I</text>
<text x="510" y="470" fill="red" >3</text>
<text x="510" y="455" fill="green" >0</text>
<text x="510" y="425" fill="magenta" >3</text>
<text x="510" y="410" fill="gray" >3</text>
<text x="510" y="395" fill="purple" >3</text>
<line x1="300" y1="100" x2="200" y2="200" stroke="black" />
<line x1="300" y1="100" x2="400" y2="200" stroke="black" />
<line x1="200" y1="200" x2="300" y2="300" stroke="black" />
<line x1="400" y1="200" x2="300" y2="300" stroke="black" />
<line x1="300" y1="300" x2="200" y2="400" stroke="black" />
<line x1="300" y1="300" x2="400" y2="400" stroke="black" />
<line x1="200" y1="200" x2="100" y2="500" stroke="black" />
<line x1="400" y1="200" x2="500" y2="500" stroke="black" />
<line x1="200" y1="400" x2="300" y2="400" stroke="black" />
<line x1="300" y1="400" x2="400" y2="400" stroke="black" />
<line x1="400" y1="400" x2="500" y2="500" stroke="black" />
<line x1="200" y1="400" x2="100" y2="500" stroke="black" />
<line x1="100" y1="500" x2="500" y2="500" stroke="black" />


</svg>
